<svg width="92" height="123" viewBox="0 0 92 123" fill="none" xmlns="http://www.w3.org/2000/svg">
<path d="M41.9389 0.0193617C40.0427 0.0711242 38.1705 0.229487 36.2999 0.506237C33.5288 0.783499 30.7623 2.17032 27.715 3.55612C23.8354 5.21867 19.9521 6.8802 16.3498 7.15746C10.2531 9.09727 8.31378 11.8673 6.65071 14.0844C6.65071 14.3612 6.37396 14.6374 6.37396 14.6374C4.1574 19.0705 3.87655 23.5036 4.70834 27.9378C5.5391 30.7089 6.64866 33.2073 7.47994 35.7011C9.41975 40.9666 11.3637 45.9547 12.1949 51.7742C13.0262 53.4367 13.8529 55.6543 14.4069 57.8714C15.7927 62.305 17.1846 67.2927 21.341 71.1718L21.3702 71.1574C21.4599 71.2512 21.5245 71.3558 21.6173 71.4485C21.6542 71.4301 21.6895 71.4163 21.7264 71.3978L21.6173 68.4002C24.9429 63.412 29.6497 60.0869 36.3004 58.7011C38.9628 58.141 41.8405 57.9339 44.8207 58.0461C47.9271 58.1291 51.0166 58.534 54.0395 59.2541C61.5215 61.1939 67.3389 65.0751 67.6167 68.4002C67.7566 70.2191 67.8207 71.9631 67.7838 73.7117C67.7786 74.0397 67.7602 74.3703 67.7479 74.7009L68.4459 75.0504C68.8303 74.8582 69.1757 74.502 69.5012 74.0756C69.5053 74.0705 69.5114 74.0654 69.5155 74.0613C69.5247 74.0495 69.5355 74.03 69.5447 74.0177C69.7477 73.743 69.9276 73.3843 70.1121 73.0281C70.2084 72.8349 70.3027 72.5842 70.396 72.3659C71.4456 69.9971 72.2512 66.4537 73.1532 62.303C73.4305 60.9177 73.7129 59.8102 73.9901 58.7016C76.2072 53.7135 79.2515 49.2809 82.2993 45.1245C87.2875 38.1965 91.9999 31.819 91.4454 24.337C82.3024 6.60037 69.5524 3.82826 62.9017 2.44297C61.7932 2.16571 61.2448 2.16674 60.413 1.88947C53.5547 0.642562 47.6282 -0.136951 41.9389 0.0193617ZM67.7838 73.7117C67.8118 72.0317 67.7555 70.3504 67.6162 68.6759C67.3389 65.073 61.5215 61.1934 53.7623 59.2531C50.7488 58.5684 47.7337 58.1558 44.8207 58.0461C42.0583 57.9759 39.3585 58.1727 36.8529 58.7001C30.4794 60.0859 25.4948 63.4115 22.4465 68.3992L22.7084 75.733C26.1278 73.9096 31.5879 71.2502 38.7957 70.6111C39.135 70.5809 39.4968 70.5809 39.8433 70.5604C40.4465 70.4937 41.2101 70.3349 42.1208 70.3349C50.3593 70.3349 58.8704 73.0696 67.1139 78.7824C67.3138 77.3761 67.4271 75.9688 67.4778 74.5625L67.7033 74.6788C67.7177 74.36 67.7771 74.0295 67.7838 73.7117ZM41.9317 0.295599C42.5667 0.278174 43.2325 0.346849 43.8741 0.354024C42.6954 0.342749 41.5228 0.367349 40.3527 0.433974C40.8806 0.402712 41.4018 0.309949 41.9317 0.295599ZM44.4855 0.375549C47.8434 0.447299 51.2787 0.739937 54.9339 1.29959C51.4314 0.793749 47.9403 0.443199 44.4855 0.375549ZM37.7477 0.659474C37.3582 0.704062 36.9651 0.727637 36.5766 0.782987C32.3905 1.38107 27.4838 4.37817 22.4829 6.13861C24.2997 5.46057 26.1437 4.62315 27.9907 3.83185C30.7618 2.44605 33.806 1.06025 36.2999 0.782987C36.7811 0.711749 37.2664 0.714824 37.7477 0.659474ZM36.5766 1.88947C37.4079 1.88947 38.5175 1.88845 39.3487 2.16571C38.6184 1.98275 38.0188 2.03246 37.4494 2.09294C38.0038 2.13376 38.5498 2.25122 39.072 2.44195C42.0424 7.5731 36.8867 29.4973 35.5942 44.2066C36.3931 49.473 37.2024 54.4376 37.966 58.1471C34.3636 49.0026 30.7567 32.927 30.2027 20.4579C29.9259 15.4697 30.2078 11.035 31.3158 7.70994C32.4249 4.38484 34.0823 2.16674 36.5766 1.88947ZM52.6491 3.27835C48.4928 14.0859 47.9423 34.588 47.6651 40.9614C47.3883 43.7325 47.6646 49.8277 47.9418 54.2618C47.9418 55.3704 48.2186 56.4784 48.2186 57.5869C48.2186 56.4784 47.9418 55.6466 47.9418 54.5386C45.7247 37.9121 42.9501 17.9656 52.6491 3.27835ZM69.8281 5.21406C68.4423 16.2984 62.629 21.5679 60.6892 32.3755C60.1352 40.9661 59.0236 50.9393 58.7469 59.5298C58.4696 50.9393 58.7433 41.7968 60.1291 32.6523C61.5144 23.2305 64.5627 13.8046 69.8281 5.21406ZM16.6255 7.43319C14.7902 8.04511 13.3865 8.70419 12.2308 9.38325C13.4183 8.68727 14.7913 8.01692 16.6255 7.43319ZM17.7023 8.44486C18.8067 8.45767 19.9491 8.82104 20.7803 9.65282C20.746 9.63232 20.7404 9.63591 20.7076 9.61644C21.3897 10.0925 22.0739 10.6891 22.7227 11.588C21.6793 16.5454 24.0311 27.1255 22.9267 35.5187C23.3177 43.4548 23.2942 51.8183 27.2778 58.3731C22.2574 50.6308 21.2508 40.7559 20.5036 31.5386C19.9255 25.9488 19.4607 20.792 18.1246 16.6592C17.3866 15.0976 16.749 13.7149 16.1602 12.4465C16.0336 12.2573 15.9311 12.0447 15.7963 11.8648C15.2418 11.3103 14.9665 10.4831 14.9665 9.92906C14.9665 9.65231 15.2428 9.09984 15.52 9.09984C15.7968 8.82257 16.3482 8.81642 16.6255 8.53916C16.9802 8.47035 17.341 8.43874 17.7023 8.44486ZM10.8045 11.588C10.495 11.691 10.3315 11.7982 10.0845 11.9007C10.9906 11.7264 11.9382 12.0744 12.7474 13.5304C11.7855 18.0998 14.984 30.794 14.945 39.6884C16.5461 49.1584 17.7617 59.4186 22.9995 65.9038C16.9028 58.9758 14.4105 46.7834 12.4712 36.5304C10.8076 28.4944 9.42129 21.5684 6.6502 19.3514C6.37345 18.7974 6.09721 18.516 6.09721 17.962C6.09721 17.1307 6.09619 16.0217 6.6502 14.9131C5.22955 18.1608 4.57611 21.408 4.75088 24.6557C4.52281 21.3312 5.19009 18.0419 6.6502 14.9131C6.6502 14.6364 6.92695 14.6374 6.92695 14.3601C6.98845 14.2781 7.08788 14.1813 7.15245 14.0982C7.46918 13.5945 7.8228 13.1296 8.30916 12.7811C8.59463 12.4659 8.80373 12.1707 9.12404 11.8499C8.85446 12.1343 8.67714 12.4096 8.43985 12.694C8.57976 12.6017 8.70789 12.5054 8.86933 12.4249C9.42334 11.8704 9.97325 11.588 10.8045 11.588ZM8.86933 12.4249C8.84985 12.4634 8.83038 12.4818 8.8109 12.5192C8.87496 12.4685 8.93493 12.4126 9.00053 12.3665C8.9626 12.3855 8.90725 12.406 8.86933 12.4249ZM84.5184 18.2382C84.5097 18.2649 84.4979 18.2915 84.4892 18.3182C84.6829 18.2925 84.8741 18.2295 85.0709 18.2382C84.8772 18.2269 84.6799 18.291 84.4815 18.3402C80.0566 31.8794 74.8086 45.4228 69.5586 58.962C69.5564 58.967 69.5538 58.9718 69.5509 58.9763C69.1029 61.3605 68.3516 63.5079 66.7859 65.0741C69.003 62.5797 69.2736 58.9717 69.5509 54.5381C69.8276 50.3817 69.8297 45.9481 72.0467 41.5139C72.0467 41.2418 72.0529 40.9717 72.3158 40.6991C72.3174 40.6944 72.322 40.6893 72.3235 40.6847C72.8222 38.8787 73.3587 37.1561 73.9461 35.4674C76.0899 28.8582 79.7865 19.2453 84.2632 18.3474C84.3467 18.3207 84.438 18.2551 84.5184 18.2382ZM27.1543 83.0823L25.4948 83.6353C26.3266 84.7438 26.8765 85.5776 27.4305 85.8544C27.9846 86.1311 28.5416 86.4079 29.3729 86.4079C29.6502 86.4079 30.2021 86.4079 30.4794 86.1311L34.6409 84.7484C34.9182 84.7484 35.1934 84.4717 35.4706 84.4717C36.0247 84.4717 36.2988 84.4717 36.8529 84.7484L38.2428 86.1311L39.625 85.8544C39.071 85.0231 38.2438 84.1959 37.6898 83.9192C37.1352 83.6419 36.5782 83.3585 35.7474 83.3585H35.1939L30.7556 85.0252H29.9264C29.3719 85.0252 28.821 85.0252 28.5437 84.7484C28.2669 84.4717 27.7088 83.9136 27.1543 83.0823ZM13.8534 85.8549C12.4681 86.6857 10.5273 88.071 7.75618 89.1795C4.98509 90.288 2.7675 91.3961 1.65896 92.5046C0.550426 93.6131 0 94.7217 0 95.8297C0 96.3842 0.275213 96.6661 0.829226 96.9428C1.10598 97.2201 1.66563 97.2191 1.94238 97.4963C5.822 99.1589 9.69804 101.094 13.3004 103.033C13.8549 103.31 14.413 103.869 14.6903 104.147C14.9671 104.423 15.2428 104.423 15.5195 104.423C16.0741 104.423 16.9007 104.148 17.4552 103.593C18.0093 103.04 18.2916 102.481 18.2916 101.927C18.2916 101.373 18.0098 101.098 17.4552 100.821C17.4552 100.821 15.2371 99.7119 11.3575 98.0488C8.86369 96.9408 6.65328 95.8317 5.26748 95.0005C6.09926 93.6147 7.75823 92.5072 10.2521 91.3986C13.0231 90.2901 14.965 89.1815 15.7963 88.3503C16.073 88.073 16.073 87.7978 16.073 87.5205C16.073 87.2438 15.7968 86.6846 15.5195 86.4074C15.2428 86.1306 14.6842 85.8544 14.1301 85.8544L13.8534 85.8549ZM71.4943 85.8549C71.2175 85.8549 70.665 86.1301 70.3883 86.4074C70.111 86.9614 69.8281 87.2438 69.8281 87.5205V87.7973C70.6594 88.6286 71.7741 89.1785 73.4366 89.7325C74.8224 90.0092 76.2057 90.5689 77.5915 90.8456C79.254 91.4002 80.3626 92.2258 80.9166 93.3343V93.6178C80.9166 93.895 80.359 94.446 79.2505 95.0005C78.6959 95.2772 77.5874 96.1111 76.2016 97.2196C74.8163 98.0509 73.9845 98.8781 73.1532 99.1548C72.0447 99.7093 71.218 100.267 70.9413 100.821C70.664 101.098 70.6645 101.373 70.6645 101.651C70.6645 102.205 70.9408 102.203 71.218 102.757C71.4948 103.311 72.0462 103.317 72.3235 103.317C72.6002 103.317 72.876 103.033 73.1532 103.033C74.5385 102.202 76.4804 101.095 78.6975 99.1548C81.1913 97.2155 83.1331 95.8317 84.2417 95.0005C85.3502 94.446 85.9007 93.8889 85.9007 93.0581C85.9007 92.7808 85.9017 92.2289 85.3477 91.9516C83.4078 89.7351 80.6403 88.3528 77.3147 87.2443C76.7607 86.967 75.9289 86.6846 74.2664 86.4074C73.4351 86.1306 72.6013 85.8544 72.0473 85.8544L71.4943 85.8549ZM56.251 90.0092C54.8652 90.0092 53.7572 90.2911 52.9259 91.1224C51.8173 91.9537 51.5426 93.3379 51.8199 95.0005C51.8199 96.3858 52.3708 97.4938 53.2021 98.6018C54.0334 99.7104 55.1424 100.268 56.251 100.268C57.0823 100.268 57.6388 99.985 58.4701 99.7078C59.8554 98.8765 60.4125 97.4943 60.4125 95.0005C60.4125 93.0607 59.8539 91.6769 59.0231 90.8456C58.1918 90.2916 57.36 90.0092 56.251 90.0092ZM33.2515 90.286C31.8657 90.286 30.7577 90.5679 29.9264 91.3986C28.8179 92.2299 28.5427 93.6142 28.8204 95.2767C28.8204 96.6625 29.3714 97.77 30.2027 98.8786C31.0339 99.9871 32.143 100.545 33.2515 100.545C34.0828 100.545 34.6394 100.262 35.4706 99.9845C36.8559 99.1533 37.4058 97.7705 37.4058 95.2767C37.4058 93.0602 36.8549 91.6764 36.0236 91.1224C35.1924 90.5679 34.3601 90.286 33.2515 90.286ZM33.2515 93.6178C34.0828 93.6178 34.6409 94.1692 34.6409 95.0005C34.6409 95.8317 33.8055 96.3827 33.2515 96.3827C32.4202 96.3827 31.8688 95.8317 31.8688 95.0005C31.8688 94.1692 32.4202 93.6178 33.2515 93.6178ZM55.698 93.8945C56.5293 93.8945 57.0874 94.4454 57.0874 95.2767C57.0874 95.8312 56.5288 96.6594 55.698 96.6594C54.8667 96.6594 54.3153 96.108 54.3153 95.2767C54.3153 94.4454 54.8667 93.8945 55.698 93.8945ZM41.8441 104.7L42.6738 106.358C42.9506 106.913 43.2253 107.194 43.7798 107.748C44.0566 108.025 44.6152 108.578 45.1697 108.578H45.7222C46.2767 108.578 46.5514 108.578 46.8282 108.301C47.1054 108.024 47.6646 108.025 47.9418 107.748L48.771 106.919C49.0478 106.642 49.3245 106.359 49.3245 106.082C49.6013 105.805 49.5998 105.529 49.877 105.253C49.877 104.975 50.1538 104.699 50.1538 104.699C49.8765 105.254 49.3245 105.804 49.0478 106.358C48.4933 106.635 48.2196 107.195 47.6651 107.195C47.1111 107.472 46.5529 107.472 45.9989 107.472C45.4449 107.472 44.8935 107.472 44.6167 107.195C44.0622 107.195 43.7803 106.919 43.5031 106.642L42.6738 105.806C42.3971 105.528 42.1214 104.976 41.8441 104.7ZM37.4058 109.967C31.5864 109.967 27.9876 117.724 19.6744 110.797C17.4573 124.375 33.8107 125.485 40.7381 119.666C45.449 115.51 44.0566 109.69 37.4058 109.967ZM52.0961 109.967C45.4454 109.69 44.0601 115.51 48.771 119.666C55.699 125.486 72.0447 124.375 69.8281 110.797C61.5149 117.724 58.1928 109.967 52.0961 109.967Z" fill="#2C3951"/>
</svg>
