<svg width="15" height="26" viewBox="0 0 15 26" fill="none" xmlns="http://www.w3.org/2000/svg">
<path d="M3.54375 13.4972L2.36423 13.5L0 9.83796L2.39452 6H4.5L2.10635 9.73056L4.5 13.5L3.54375 13.4972Z" fill="white"/>
<path d="M11.4563 13.4972L12.6358 13.5L15 9.83796L12.6055 6H10.5L12.8937 9.73056L10.5 13.5L11.4563 13.4972Z" fill="white"/>
<path d="M9.02146 12.5725C8.74393 12.9875 8.3426 13.2496 7.89434 13.2496C7.05774 13.2496 6.37887 12.3392 6.37887 11.2162C6.37887 10.0933 7.05774 9.18288 7.89434 9.18288C8.33361 9.18288 8.72895 9.43507 9.00549 9.83618L10.3512 8.90091C9.74825 8.04706 8.82579 7.5 7.78952 7.5C5.97255 7.5 4.5 9.17891 4.5 11.25C4.5 13.3211 5.97255 15 7.78952 15C8.91464 15 9.90699 14.3556 10.5 13.3727L9.02146 12.5725Z" fill="white"/>
<path d="M7.5 0C5.84344 0 4.5 1.34296 4.5 3C4.5 4.65704 5.84344 6 7.5 6C9.15656 6 10.5 4.65704 10.5 3C10.5 1.34296 9.1575 0 7.5 0ZM7.53 4.70395C6.79031 4.70395 6.19125 3.96369 6.19125 3.05168C6.19125 2.13968 6.79031 1.39942 7.53 1.39942C8.26969 1.39942 8.86875 2.13968 8.86875 3.05168C8.86875 3.96369 8.26969 4.70395 7.53 4.70395Z" fill="white"/>
<path d="M6.79221 16.1484H9.03133L11.6953 25.1484H9.56898L7.93462 18.7519L6.23317 25.1484H4.19531L6.79221 16.1484Z" fill="white"/>
</svg>
