<svg width="81" height="129" viewBox="0 0 81 129" fill="none" xmlns="http://www.w3.org/2000/svg">
<path d="M19.7082 75.5468L13.1484 75.5613L0 56.5269L13.3168 36.5781H25.0262L11.7142 55.9686L25.0262 75.5613L19.7082 75.5468Z" fill="#2C3951"/>
<path d="M60.3493 75.5468L66.9091 75.5613L80.0575 56.5269L66.7406 36.5781H55.0312L68.3433 55.9686L55.0312 75.5613L60.3493 75.5468Z" fill="#2C3951"/>
<path d="M47.5859 65.4867C46.248 67.4984 44.3133 68.769 42.1524 68.769C38.1193 68.769 34.8466 64.3557 34.8466 58.9125C34.8466 53.4693 38.1193 49.056 42.1524 49.056C44.27 49.056 46.1758 50.2785 47.5089 52.2228L53.9965 47.6892C51.0896 43.5503 46.6426 40.8984 41.647 40.8984C32.8878 40.8984 25.7891 49.0368 25.7891 59.0761C25.7891 69.1155 32.8878 77.2538 41.647 77.2538C47.071 77.2538 51.8548 74.1304 54.7136 69.3658L47.5859 65.4867Z" fill="#2C3951"/>
<path d="M40.4242 0C31.9201 0 25.0234 8.12871 25.0234 18.1584C25.0234 28.1882 31.9201 36.3169 40.4242 36.3169C48.9283 36.3169 55.8249 28.1882 55.8249 18.1584C55.8249 8.12871 48.9331 0 40.4242 0ZM40.5782 28.4721C36.7809 28.4721 33.7056 23.9915 33.7056 18.4713C33.7056 12.9511 36.7809 8.47041 40.5782 8.47041C44.3754 8.47041 47.4508 12.9511 47.4508 18.4713C47.4508 23.9915 44.3754 28.4721 40.5782 28.4721Z" fill="#2C3951"/>
<path d="M35.472 82.2969H46.5557L59.7426 128.499H49.2172L41.127 95.6618L32.7047 128.499H22.6172L35.472 82.2969Z" fill="#2C3951"/>
</svg>
