<svg width="21" height="21" viewBox="0 0 21 21" fill="none" xmlns="http://www.w3.org/2000/svg">
<path d="M7.82051 18.1465C2.94872 19.5732 2.94872 15.7686 1 15.293M14.641 21V17.319C14.6776 16.8654 14.6148 16.4095 14.4569 15.9814C14.299 15.5534 14.0495 15.1631 13.7251 14.8364C16.7846 14.5035 20 13.3716 20 8.17826C19.9997 6.85027 19.4765 5.57321 18.5385 4.61139C18.9826 3.44954 18.9512 2.16532 18.4508 1.02548C18.4508 1.02548 17.301 0.692576 14.641 2.43321C12.4078 1.84237 10.0537 1.84237 7.82051 2.43321C5.16051 0.692576 4.01077 1.02548 4.01077 1.02548C3.51032 2.16532 3.47891 3.44954 3.92308 4.61139C2.97807 5.58034 2.45425 6.86895 2.46154 8.2068C2.46154 13.3621 5.67692 14.494 8.73641 14.865C8.41584 15.1883 8.16862 15.574 8.01081 15.9968C7.85301 16.4196 7.78817 16.8701 7.82051 17.319V21" stroke="white"/>
</svg>
