<svg width="110" height="122" viewBox="0 0 110 122" fill="none" xmlns="http://www.w3.org/2000/svg">
<path d="M28.7172 88.4334V3.12664H8.71494C5.66697 3.12664 3.63499 6.52905 3 8.23026V114.4C3.76199 117.738 7.12746 119.191 8.71494 119.5H102.059C104.726 118.758 106.028 115.791 106.345 114.4C106.504 81.7907 106.726 15.0881 106.345 9.15375C105.964 3.21937 103.329 2.66302 102.059 3.12664H43.4808V33.7258C63.0069 17.3723 80.1517 32.2083 80.1517 47.1709V88.4334H66.8168V47.1709C66.8168 36.3809 42.0521 37.756 42.0521 47.1709V88.4334H28.7172Z" stroke="#2C3951" stroke-width="5"/>
<rect x="28.8906" y="100.086" width="51.7778" height="6.47222" fill="#2C3951"/>
</svg>
