<svg width="19" height="22" viewBox="0 0 19 22" fill="none" xmlns="http://www.w3.org/2000/svg">
<path d="M4.71851 15.675V0.0232356H1.04856C0.489326 0.0232356 0.116506 0.647498 0 0.959629V20.4393C0.139808 21.0518 0.757291 21.3183 1.04856 21.375H18.175C18.6643 21.2389 18.9031 20.6945 18.9614 20.4393C18.9905 14.4562 19.0313 2.21789 18.9614 1.12907C18.8915 0.0402484 18.408 -0.0618284 18.175 0.0232356H7.42728V5.63746C11.0098 2.63699 14.1555 5.35904 14.1555 8.10432V15.675H11.7089V8.10432C11.7089 6.12461 7.16514 6.3769 7.16514 8.10432V15.675H4.71851Z" fill="white"/>
<rect x="4.75" y="17.8125" width="9.5" height="1.1875" fill="#043144"/>
</svg>
