<svg width="103" height="124" viewBox="0 0 103 124" fill="none" xmlns="http://www.w3.org/2000/svg">
<path d="M94.2634 82.5606H45.028C40.2079 82.5606 36.2891 78.4255 36.2891 73.3428C36.2891 68.2601 40.2131 64.125 45.028 64.125H94.2634C99.0834 64.125 103.002 68.2601 103.002 73.3428C103.002 78.4255 99.0783 82.5606 94.2634 82.5606ZM45.028 69.2746C43.0454 69.2746 41.4387 71.0976 41.4387 73.3428C41.4387 75.588 43.0454 77.411 45.028 77.411H94.2634C96.246 77.411 97.8527 75.588 97.8527 73.3428C97.8527 71.0976 96.246 69.2746 94.2634 69.2746H45.028Z" fill="#7F97B2" fill-opacity="0.12"/>
<path d="M49.529 123.5C41.269 123.5 34.1986 120.756 29.085 115.565L7.9819 94.0342C2.83744 88.8022 0 81.3713 0 73.1114C0 64.9853 2.83744 57.6213 7.9922 52.3842L57.0113 2.53078C60.4101 -0.919456 66.43 -0.826763 69.9163 2.71617C73.4901 6.35179 73.5725 12.1863 70.0914 15.7138L61.0177 25.0655C64.3726 26.4347 67.418 28.4644 69.9729 31.0339L82.6564 44.0624C86.117 47.5847 86.0294 53.4089 82.4556 57.0446C81.5974 57.9311 80.5699 58.6363 79.4342 59.1184C78.2984 59.6005 77.0773 59.8497 75.8435 59.8511C73.4541 59.8511 71.2294 58.919 69.5661 57.2299L56.5067 44.3971C54.8537 42.7132 52.4951 41.8738 49.4672 41.8738C46.3465 41.8738 43.9622 42.6823 42.3864 44.289L21.443 65.8865C19.6818 67.6837 18.76 70.1658 18.76 73.0959C18.76 76.0672 19.7333 78.7656 21.4327 80.4907L42.4585 102.026C44.0807 103.679 46.4443 104.519 49.4723 104.519C52.5003 104.519 54.8537 103.679 56.4758 102.026L69.6021 89.1266C70.4149 88.3017 71.3843 87.6476 72.4535 87.2028C73.5227 86.758 74.67 86.5314 75.828 86.5364H75.8383C78.3256 86.5364 80.6738 87.5354 82.4607 89.3481C86.0294 92.9785 86.1169 98.8079 82.6461 102.335L69.9935 115.338C64.813 120.606 57.5521 123.5 49.529 123.5ZM63.2887 5.05924C62.8033 5.05522 62.3219 5.14889 61.8734 5.33467C61.4249 5.52045 61.0183 5.79455 60.6779 6.14066L11.6587 55.994C7.46179 60.2631 5.14961 66.3396 5.14961 73.1114C5.14961 80.017 7.46179 86.1656 11.6639 90.4295L11.669 90.4346L32.767 111.96C36.8815 116.136 42.68 118.351 49.529 118.351C56.1617 118.351 62.1146 116.008 66.3064 111.749L78.959 98.7461C80.4781 97.1961 80.3957 94.6058 78.7839 92.9682C78.4022 92.5696 77.9443 92.2516 77.4375 92.0331C76.9306 91.8147 76.3851 91.7001 75.8332 91.6963C75.3524 91.695 74.871 91.7896 74.4272 91.9744C73.9834 92.1591 73.5808 92.4305 73.2429 92.7726L60.1166 105.672C57.5572 108.283 53.8649 109.679 49.4672 109.679C45.0694 109.679 41.372 108.283 38.7766 105.641L17.7456 84.1058C15.0729 81.3919 13.6001 77.4834 13.6001 73.1062C13.6001 68.8629 15.0729 65.0213 17.7507 62.2972L38.6942 40.6997C41.2844 38.0631 44.9046 36.7294 49.462 36.7294C53.8598 36.7294 57.5521 38.1249 60.1423 40.7615L73.2017 53.5943C73.5429 53.9487 73.9526 54.23 74.4058 54.4212C74.859 54.6124 75.3464 54.7095 75.8383 54.7066C76.3883 54.703 76.9319 54.589 77.437 54.3714C77.9421 54.1538 78.3983 53.837 78.7787 53.4398C80.3906 51.7971 80.4781 49.2069 78.9693 47.6671L66.2961 34.6489C63.4288 31.7618 59.8116 29.7338 55.8527 28.7938C54.9515 28.5827 54.1482 27.8875 53.8855 26.9966C53.6229 26.1057 53.7774 25.1273 54.4211 24.463L66.3939 12.1142C67.9285 10.559 67.8461 7.96877 66.2343 6.32605C65.8531 5.92849 65.396 5.61151 64.89 5.39391C64.384 5.1763 63.8395 5.0625 63.2887 5.05924Z" fill="#7F97B2" fill-opacity="0.12"/>
</svg>
