<svg width="32" height="26" viewBox="0 0 32 26" fill="none" xmlns="http://www.w3.org/2000/svg">
<path d="M31.4387 14.8198C31.3321 14.7305 31.2061 14.6674 31.0707 14.6358L31.0653 14.6344C30.2654 15.4397 29.2654 16.2837 28.3987 16.8517C27.9854 17.1157 27.4654 17.2477 27.1321 17.2477C26.3454 17.2477 26.0121 16.5224 25.9188 15.3477C25.7449 13.2262 25.6693 11.0977 25.6921 8.96918C25.6921 5.98923 24.9974 3.95727 23.1855 3.79994L22.9455 3.7866C21.8388 3.7866 21.2922 4.35459 20.5855 5.79324C19.9722 7.03455 19.0256 8.82919 17.2789 12.2598C15.9613 14.8578 14.3987 17.324 12.6123 19.625C12.199 20.1263 11.879 20.469 11.5723 20.6797C11.3994 20.7971 11.196 20.8615 10.987 20.865C10.4137 20.865 9.98837 20.3903 9.85504 19.2677C9.81864 18.9789 9.80083 18.6881 9.8017 18.397V18.3584C9.8017 16.0491 10.6817 12.2878 12.2017 6.77055C13.3083 2.74529 12.8417 0 10.415 0H10.375C9.82837 0 9.37504 0.210663 8.93505 0.554657C8.49506 0.883985 8.0684 1.62397 7.65507 2.61329C7.20175 3.7226 4.42846 9.25185 0.0032008 12.1158C-0.0501316 13.1851 0.563191 14.2678 1.82984 14.3984C2.96315 14.5038 3.77647 14.0291 4.81645 13.3291L4.60312 14.2931C4.34129 15.3489 4.12862 16.4162 3.9658 17.4917L3.93647 17.7237C3.32315 23.2663 5.89644 25.9982 8.92305 25.9982C9.42971 25.9982 9.93637 25.9316 10.4297 25.8009C13.763 24.9689 16.9629 21.169 20.7615 12.4318C20.7097 13.3278 20.7057 14.226 20.7495 15.1224C21.0082 20.117 22.9922 21.605 25.8134 21.605C27.9467 21.605 29.9334 20.509 30.9467 19.137C31.6032 18.3165 31.9731 17.3036 32 16.2531V16.2464C31.972 15.5997 31.772 15.0851 31.4387 14.8198Z" fill="#E35050"/>
</svg>
