<svg width="120" height="97" viewBox="0 0 120 97" fill="none" xmlns="http://www.w3.org/2000/svg">
<path d="M117.296 55.2918C116.899 54.9587 116.428 54.7235 115.923 54.6053L115.903 54.6004C112.919 57.605 109.188 60.7538 105.954 62.873C104.412 63.858 102.472 64.3504 101.229 64.3504C98.2936 64.3504 97.05 61.6443 96.7018 57.2617C96.0531 49.3463 95.7709 41.4051 95.8561 33.4636C95.8561 22.3456 93.2644 14.7644 86.504 14.1774L85.6086 14.1276C81.4797 14.1276 79.4402 16.2468 76.8037 21.6143C74.5154 26.2456 70.9835 32.9413 64.4668 45.7407C59.5509 55.4337 53.7209 64.6352 47.056 73.22C45.5139 75.0904 44.32 76.3689 43.1759 77.1549C42.5308 77.5931 41.7718 77.8334 40.9921 77.8463C38.853 77.8463 37.2661 76.0754 36.7687 71.8868C36.6329 70.8094 36.5665 69.7244 36.5697 68.6385V68.4942C36.5697 59.8783 39.8529 45.8452 45.5239 25.2606C49.6527 10.2425 47.9116 0 38.858 0H38.7088C36.6692 0 34.9779 0.785974 33.3363 2.0694C31.6947 3.29811 30.1028 6.05897 28.5607 9.75007C26.8694 13.8889 16.5224 34.5182 0.011942 45.2035C-0.187039 49.1931 2.10124 53.2324 6.82704 53.7199C11.0554 54.1129 14.0898 52.3419 17.97 49.7303L17.174 53.3269C16.1972 57.2659 15.4037 61.2482 14.7962 65.2608L14.6868 66.1263C12.3985 86.8054 21.9993 96.9982 33.2915 96.9982C35.1818 96.9982 37.0721 96.7495 38.9127 96.262C51.349 93.1579 63.2879 78.9805 77.4603 46.3825C77.2671 49.7255 77.2521 53.0764 77.4155 56.421C78.3806 75.0556 85.7827 80.6072 96.3088 80.6072C104.268 80.6072 111.68 76.5181 115.461 71.3993C117.91 68.3379 119.29 64.5589 119.391 60.6394V60.6146C119.286 58.2019 118.54 56.2818 117.296 55.2918Z" fill="#2C3951"/>
<path d="M77.4239 55.8623L77.419 55.7293L77.4141 55.6406L77.4239 55.8623Z" fill="black"/>
</svg>
