<svg width="42" height="29" viewBox="0 0 42 29" fill="none" xmlns="http://www.w3.org/2000/svg">
<path d="M27.5331 14.0675C23.7436 12.0443 20.1152 10.1842 16.4062 8.24219V19.8598C20.3092 17.7401 24.423 15.7988 27.5492 14.0675H27.5331Z" fill="white"/>
<path d="M27.5331 14.0675C23.7436 12.0443 16.4062 8.24219 16.4062 8.24219L26.1889 14.8113C26.1889 14.8113 24.4069 15.7988 27.5331 14.0675Z" fill="#E8E0E0"/>
<path d="M17.1169 28.9641C9.24584 28.8193 6.55748 28.689 4.90506 28.3489C3.78708 28.1229 2.81556 27.6211 2.10321 26.8933C1.55266 26.3425 1.11482 25.5021 0.775138 24.3362C0.483759 23.3648 0.370274 22.5565 0.208482 20.5823C-0.0391909 16.1268 -0.0982336 12.4841 0.208482 8.41389C0.461521 6.1662 0.584207 3.49793 2.26501 1.94125C3.05863 1.21271 3.98184 0.743867 5.01854 0.550048C6.638 0.242849 13.5376 0 20.6802 0C27.8067 0 34.7216 0.242849 36.3426 0.550048C37.6377 0.792896 38.8523 1.52067 39.5654 2.45913C41.099 4.86922 41.1258 7.86614 41.2815 10.2104C41.3459 11.3273 41.3459 17.6697 41.2815 18.7867C41.0392 22.4914 40.8444 23.8022 40.2938 25.1612C39.9534 26.0192 39.6628 26.472 39.1598 26.9738C38.3709 27.746 37.3651 28.2596 36.2766 28.4462C29.4653 28.9579 23.6814 29.069 17.1169 28.9641ZM27.5475 14.0775C23.7581 12.0543 20.1296 10.1782 16.4207 8.23616V19.8546C20.3236 17.7348 24.4382 15.7928 27.5636 14.0615L27.5475 14.0775Z" fill="#CD201F"/>
</svg>
