<svg width="91" height="64" viewBox="0 0 91 64" fill="none" xmlns="http://www.w3.org/2000/svg">
<path d="M37.3709 63.2365C20.1862 62.9204 14.3168 62.6361 10.7091 61.8934C8.26824 61.4 6.14714 60.3045 4.5919 58.7156C3.38989 57.513 2.43397 55.6782 1.69234 53.1325C1.05618 51.0117 0.80841 49.2471 0.455173 44.9369C-0.0855645 35.2093 -0.214471 27.2562 0.455173 18.3698C1.00763 13.4625 1.27549 7.63695 4.94513 4.23829C6.67783 2.64768 8.69346 1.62407 10.9569 1.20091C14.4926 0.530205 29.5562 0 45.1505 0C60.7097 0 75.8068 0.530205 79.3459 1.20091C82.1734 1.73111 84.8252 3.32005 86.3821 5.36895C89.7304 10.6309 89.789 17.1739 90.1288 22.292C90.2694 24.7306 90.2694 38.5778 90.1288 41.0164C89.5998 49.105 89.1746 51.9667 87.9726 54.9339C87.2292 56.8072 86.5948 57.7956 85.4966 58.8912C83.7742 60.5771 81.5784 61.6984 79.2019 62.1059C64.3308 63.2231 51.703 63.4657 37.3709 63.2365ZM60.1438 30.7351C51.8704 26.3179 43.9485 22.2218 35.8509 17.9818V43.348C44.3721 38.72 53.3553 34.48 60.179 30.7L60.1438 30.7351Z" fill="#2C3951"/>
</svg>
